Love for All and Sharing is the first step to solving all the problems of humanity.

Websites I want to share.

 
http://www.shareintl.org/

 
http://www.lightmiddleway.com


Thank you very much

No credit for me...credit to EVERYONE for sharing

 
http://thepiratebay.org/user/raymondhome/

STORY
An insurance investigator begins discovering that the impact a horror writer's books have on his fans is more than inspirational.

General
Format : AVI
Format/Info : Audio Video Interleave
Duration : 1h 35mn
Overall bit rate : 1 232 Kbps

Video
ID : 0
Format : MPEG-4 Visual
Format profile : Advanced Simple@L5
Format settings, BVOP : Yes
Format settings, QPel : No
Format settings, GMC : No warppoints
Format settings, Matrix : Default (H.263)
Codec ID : XVID
Codec ID/Hint : XviD
Duration : 1h 35mn
Bit rate : 779 Kbps
Width : 704 pixels
Height : 396 pixels
Display aspect ratio : 16:9
Frame rate : 23.976 fps
Color space : YUV
Chroma subsampling : 4:2:0
Bit depth : 8 bits
Scan type : Progressive
Compression mode : Lossy
Bits/(Pixel*Frame) : 0.117
Stream size : 532 MiB (63%)
Writing library : XviD 1.2.1 (UTC 2008-12-04)

Audio
ID : 1
Format : AC-3
Format/Info : Audio Coding 3
Mode extension : CM (complete main)
Codec ID : 2000
Duration : 1h 35mn
Bit rate mode : Constant
Bit rate : 448 Kbps
Channel(s) : 6 channels
Channel positions : Front: L C R, Side: L R, LFE
Sampling rate : 48.0 KHz
Bit depth : 16 bits
Compression mode : Lossy
Video delay : 42ms
Stream size : 306 MiB (36%)
Alignment : Split accross interleaves
Interleave, duration : 500 ms (11.99 video frames)
Interleave, preload duration : 500 ms
Language : English

credit LKRG & BigPerm & to all the people who made it possible for us to share this...especially EVERYONE involve in the production of the movie...IF YOU LIKE IT...BUY IT :)

*****help what we can with others in need...the world is ONE big family*****

SCREENSHOTS
 
http://leetleech.org/images/58916500688167484842.png
 
http://leetleech.org/images/52745240270050958300.png
 
http://leetleech.org/images/06691717145899985918.png
 
http://leetleech.org/images/57750444438851187331.png
 
http://leetleech.org/images/10386544129572943110.png
 
http://leetleech.org/images/29830756674800337191.png
 
http://leetleech.org/images/88703191608852677404.png
 
http://leetleech.org/images/66016431299353357326.png
 
http://leetleech.org/images/02754914779672240822.png

DON'T THANK US...HELP SOMEONE IN NEED :)

MAY YOU & YOUR LOVED ONES ALWAYS BE BLESSED WITH LIGHT, LOVE, JOY, PEACE, GOOD HEALTH & ABUNDANCE :)
 
http://www.imdb.com/title/tt0113409/